<svg xmlns="http://www.w3.org/2000/svg" xmlns:xlink="http://www.w3.org/1999/xlink" xmlns:fi="http://pattern.flaticon.com/" x="0" y="0" width="700" height="350" viewBox="0 0 700 350"><rect x="0px" y="0px" width="100%" height="100%" opacity="1" fill="#ffffff"/><defs><g transform="matrix(0.07812485098838806 0 0 0.07812485098838806 242.5 67.5)" id="L1_53"><path d="M387.194,357.515L387.194,357.515h-43.988l0,0c0,0-2.458,0-6.102,0  c-0.668,16.681-3.055,31.426-5.488,42.606v0.001l171.945,66.916L387.194,357.515z" fill="#f94851"/><path d="M331.719,301.068c4.917,19.697,6.082,39.116,5.389,56.447c3.642,0,6.098,0,6.098,0h43.988  L331.719,301.068z" fill="#0088fa"/><path d="M331.719,301.068c2.332,9.341,3.812,18.616,4.659,27.64l28.31,28.807h22.505L331.719,301.068z" fill="#006fec"/><path d="M503.56,467.038 387.194,357.515 364.688,357.515 465.189,452.104z" fill="#cc333e"/><path d="M72.316,121.357c-14.356-10.255-29.324,3.455-39.018,16.09l0.039-0.008  c10.649,16.083,38.978,16.432,38.978,16.432v-32.514H72.316z" fill="#ff9f34"/><path d="M22.689,153.872c0,0,25.669-49.627,49.627-32.514l7.346-56.169  C79.662,65.189-29.796,62.471,22.689,153.872z" fill="#ffd039"/><path d="M323.065,422.187c0,0,64.609-177.204-109.733-239.017l-0.021-0.023l-23.726-24.143v-39.013  c0-41.438-33.592-75.029-75.03-75.029l0,0c-24.721,0-44.761,20.04-44.761,44.761v127.218c0,77.636,62.937,140.573,140.573,140.573  h17.35C227.717,357.515,277.6,401.715,323.065,422.187z" fill="#f94851"/><path d="M213.332,183.17l-0.021-0.023l-23.727-24.143v-39.013c0-41.438-33.591-75.029-75.029-75.029l0,0  c-3.371,0-6.65,0.385-9.809,1.092c35.388,6.035,62.333,36.831,62.333,73.939v39.013l23.727,24.143l0.021,0.023  c149.497,53.004,123.295,190.849,112.792,229.063c6.298,3.461,12.772,6.792,19.447,9.954  C323.065,422.187,387.673,244.983,213.332,183.17z" fill="#cc333e"/><path d="M323.431,421.133c2.922-8.631,21.954-69.134,3.121-129.485c-0.918,0.16-1.847,0.325-2.79,0.503  c-62.208,11.667-153.464-16.735-166.854-21.078C183.432,311.739,237.614,379.776,323.431,421.133z" fill="#ffd039"/><path d="M323.428,421.138c2.234-6.593,13.933-43.648,10.817-87.765  c-83.578,15.211-136.684-17.166-155.258-31.402C209.34,340.938,256.865,389.062,323.428,421.138z" fill="#0088fa"/><path d="M70.357,209.274c45.445-9.471,78.941-42.042,78.941-80.765c0-33.119-24.501-61.736-60.025-75.252  l-0.07-0.033c-11.414,8.112-18.867,21.431-18.867,36.499v119.528L70.357,209.274z" fill="#d9d9db"/><path d="M89.272,53.256l-0.07-0.033c-2.808,1.995-5.373,4.31-7.65,6.883  c27.353,15.115,45.239,40.111,45.239,68.401c0,31.995-22.877,59.774-56.457,73.809v6.933l0.021,0.023  c45.445-9.471,78.941-42.042,78.941-80.765C149.296,95.391,124.795,66.772,89.272,53.256z" fill="#adacb2"/><path d="M323.431,421.133c2.923-8.631,21.954-69.134,3.12-129.485c-0.918,0.16-1.847,0.325-2.79,0.503  c-6.044,1.133-12.363,1.885-18.857,2.32c14.047,47.982,4.682,95.546-0.954,116.539C310.253,414.53,316.746,417.911,323.431,421.133z  " fill="#ff9f34"/><path d="M323.428,421.138c2.234-6.593,13.933-43.648,10.817-87.765c-7.697,1.401-15.136,2.399-22.313,3.044  c1.782,31.943-4.023,59.837-7.985,74.596C310.252,414.534,316.743,417.917,323.428,421.138z" fill="#006fec"/><path d="M144.974,233.76c-1.993-4.213-7.023-6.013-11.233-4.024c-4.215,1.991-6.019,7.019-4.028,11.235  c0.244,0.516,6.111,12.863,18.168,31.687c1.611,2.515,4.335,3.889,7.114,3.889c1.558,0,3.135-0.431,4.545-1.335  c3.924-2.514,5.068-7.734,2.554-11.659C150.68,245.734,145.031,233.877,144.974,233.76z"/><path d="M509.345,460.892l-116.25-109.41l-53.741-54.685c-2.571-9.713-6.02-19.495-10.571-29.157  c-19.794-42.022-56.214-72.874-108.245-91.742l-19.994-20.345v-35.559c0-46.025-37.444-83.47-83.47-83.47  c-16.905,0-31.983,7.935-41.735,20.267c-13.567,0.413-53.444,3.898-69.083,30.156c-10.72,17.999-7.655,41.93,9.111,71.128  c1.507,2.624,4.301,4.237,7.318,4.237c0.063,0,0.124,0,0.187-0.002c3.087-0.068,5.891-1.816,7.311-4.56  c0.888-1.717,2.33-4.238,4.171-7.113c5.335,4.086,12.162,7.18,20.422,9.24c3.309,0.825,6.429,1.367,9.098,1.728v55.338  c0,80.693,64.472,146.604,144.607,148.942l-14.06,33.744h-43.146c-4.662,0-8.439,3.779-8.439,8.439s3.777,8.439,8.439,8.439h48.724  c0.015,0,0.03,0.002,0.045,0.002c0.01,0,0.02-0.002,0.03-0.002h39.761c4.662,0,8.439-3.779,8.439-8.439s-3.777-8.439-8.439-8.439  h-27.128l14.031-33.675h0.23c26.037,23.435,57.593,46.138,95.006,63.859c1.142,0.541,2.377,0.812,3.613,0.812  c1.088,0,2.176-0.21,3.205-0.632c2.195-0.901,3.911-2.686,4.724-4.917c0.285-0.78,2.02-5.649,4.102-13.564l55.637,21.652  c1.006,0.392,2.04,0.577,3.058,0.577c3.378,0,6.568-2.042,7.867-5.381c1.69-4.344-0.46-9.235-4.805-10.925l-58.004-22.574  c1.593-8.382,3.018-18.164,3.806-28.908h38.669l82.314,77.472l-39.947-15.546c-4.344-1.692-9.235,0.46-10.925,4.804  c-1.69,4.344,0.46,9.236,4.805,10.925l80.408,31.292c1,0.389,2.036,0.576,3.058,0.576c2.828,0,5.555-1.426,7.139-3.935  C512.854,468.127,512.287,463.661,509.345,460.892z M80.754,89.724c0-10.603,4.57-20.159,11.84-26.806  c30.67,13.207,50.242,38.544,50.242,65.592c0,31.064-25.057,58.732-62.083,69.908V89.724H80.754z M20.745,95.609  C27.535,84.18,42.64,78.805,54.114,76.31c4.283-0.932,8.401-1.542,12.03-1.941c-1.47,4.865-2.269,10.017-2.269,15.355v19.702  c-2.788-0.239-5.635-0.018-8.502,0.673c-13.337,3.216-24.764,16.207-32.017,26.567C15.7,119.367,14.814,105.593,20.745,95.609z   M44.524,137.122c4.638-5.128,9.824-9.415,14.806-10.616c1.615-0.389,3.096-0.388,4.545-0.007v18.045  C57.624,143.466,49.892,141.253,44.524,137.122z M320.411,410.245c-32.898-16.717-60.867-37.408-84.161-58.65  c-0.21-0.214-0.431-0.417-0.664-0.608c-25.001-22.896-44.578-46.392-58.987-66.213c-2.741-3.771-8.02-4.602-11.789-1.863  c-3.771,2.741-4.605,8.019-1.863,11.789c11.939,16.423,27.307,35.279,46.231,54.321c-71.149-1.973-128.423-60.461-128.423-132.079  v-0.998c46.822-12.238,78.962-47.412,78.962-87.434c0-17.969-6.426-35.364-18.585-50.305c-7.788-9.569-17.687-17.835-29.149-24.438  c1.665-0.235,3.365-0.365,5.093-0.365c36.718,0,66.591,29.872,66.591,66.591v39.012c0,2.212,0.87,4.338,2.419,5.916l23.726,24.143  c0.043,0.044,0.09,0.081,0.135,0.124c0.135,0.133,0.275,0.261,0.419,0.385c0.059,0.05,0.118,0.099,0.178,0.147  c0.167,0.135,0.339,0.263,0.516,0.387c0.046,0.032,0.093,0.063,0.14,0.093c0.191,0.127,0.389,0.245,0.593,0.358  c0.035,0.019,0.07,0.037,0.105,0.056c0.217,0.116,0.442,0.222,0.673,0.32c0.013,0.006,0.028,0.011,0.043,0.018  c0.141,0.059,0.277,0.123,0.422,0.174c48.58,17.224,82.367,45.347,100.423,83.588c4.304,9.116,7.499,18.41,9.844,27.669  c0.07,0.414,0.176,0.821,0.308,1.224C334.556,348.28,325.427,391.9,320.411,410.245z M345.822,349.075  c0.016-7.328-0.318-14.951-1.123-22.76l22.367,22.76H345.822z"/><path d="M113.094,93.07c-5.375,0-9.749,4.366-9.749,9.732s4.374,9.732,9.749,9.732c5.375,0,9.749-4.366,9.749-9.732  C122.844,97.436,118.471,93.07,113.094,93.07z"/></g><g transform="matrix(0.13671875 0 0 0.13671875 315 140)" id="L1_54"><path d="M398.922,331.631l-29.487-153.483l11.006-53.721C380.441,55.7,324.727,0,256,0l0,0  c-68.727,0-124.442,55.721-124.442,124.447l11.006,53.751L113.078,331.63c-6.969,36.286,20.838,69.835,57.787,69.835h170.27  C378.083,401.465,405.89,367.917,398.922,331.631z" fill="#010100"/><g><path d="M256,0c-68.727,0-124.442,55.721-124.442,124.447l11.006,53.751L113.078,331.63   c-6.969,36.286,20.838,69.835,57.787,69.835H256L256,0L256,0z" fill="#2f3031"/><circle cx="138" cy="153" r="22" fill="#2f3031"/></g><circle cx="373" cy="153" r="22" fill="#0e1216"/><path d="M256,512l-58.687-176.754c-17.194-51.787-17.719-107.662-1.501-159.763l19.23-61.774  c5.581-17.932,22.179-30.147,40.958-30.147l0,0c18.78,0,35.377,12.216,40.959,30.147l19.23,61.774  c16.218,52.101,15.693,107.976-1.501,159.763L256,512z" fill="#d8aa64"/><path d="M256,512l-58.687-176.754c-17.194-51.787-17.719-107.662-1.501-159.763l19.23-61.774  c5.581-17.932,22.179-30.147,40.958-30.147l0,0V512z" fill="#fbc373"/><path d="M256,511.999 304.021,367.37 207.979,367.37z" fill="#63a59f"/><path d="M256,511.999 256,367.37 207.979,367.37z" fill="#71c9bf"/><path d="M315.32,333.274H196.679c0.213,0.657,0.416,1.317,0.634,1.973l10.666,32.122h96.041l10.666-32.122  C314.904,334.59,315.108,333.931,315.32,333.274z" fill="#010100"/><path d="M256,333.274h-59.32c0.213,0.657,0.416,1.317,0.634,1.973l10.666,32.122h48.021v-34.095H256z" fill="#2f3031"/></g><g transform="matrix(0.13206017156295854 -0.03538541632261026 0.03538541632261026 0.13206017156295854 132.1339295012944 150.25126265847084)" id="L1_55"><path d="M226,512c-8.291,0-15-6.709-15-15v-85.082c0-8.291,6.709-15,15-15s15,6.709,15,15V497  C241,505.291,234.291,512,226,512z" fill="#fedb41"/><path d="M316,512c-8.291,0-15-6.709-15-15v-61c0-8.291,6.709-15,15-15s15,6.709,15,15v61  C331,505.291,324.291,512,316,512z" fill="#fcbf29"/><path d="M30,30v30c0,49.706,41.294,90,91,90h30V30C107.176,30,72.535,30,30,30z" fill="#eb4f00"/><path d="M121,90H15C6.716,90,0,83.284,0,75l0,0C0,33.579,33.579,0,75,0h46l15,10.761V78.28L121,90z" fill="#ff6200"/><path d="M391,135v316h-75c-21,0-41.1-3.3-60-9.3c-78.3-25.201-135-99-135-185.7V0h135  C330.7,0,391,60.3,391,135z" fill="#10bb67"/><path d="M391,135v316h-75c-21,0-41.1-3.3-60-9.3V0C330.7,0,391,60.3,391,135z" fill="#0ca656"/><path d="M256,60c-41.4,0-75,33.6-75,75s33.6,75,75,75s75-33.6,75-75S297.4,60,256,60z" fill="#fedb41"/><path d="M331,135c0,41.4-33.6,75-75,75V60C297.4,60,331,93.6,331,135z" fill="#fcbf29"/><path d="M512,436c0-24.853-20.147-45-45-45h-14.727l-1.472-10.8c-4.501-24.302-24.701-43.5-49.001-48.001  l-10.199-1.8l-1.8-10.199c-5.4-29.702-30.601-49.2-59.101-49.2c-35.099,0-59.7,30.3-59.7,63.3c0,59.399,45.601,115.499,120,116.7  h106C505.748,451,512,443.439,512,436z" fill="#10bb67"/><path d="M271,135c0,8.399-6.599,15-15,15s-15-6.601-15-15c0-8.401,6.599-15,15-15S271,126.599,271,135z" fill="#57555c"/><path d="M271,135c0,8.399-6.599,15-15,15v-30C264.401,120,271,126.599,271,135z" fill="#3c3a41"/><path d="M512,497c0,8.399-6.599,15-15,15H16c-8.401,0-15-6.601-15-15c0-8.401,6.599-15,15-15h481  C505.401,482,512,488.599,512,497z" fill="#896748"/><path d="M512,497c0,8.399-6.599,15-15,15H256v-30h241C505.401,482,512,488.599,512,497z" fill="#73553a"/></g><g transform="matrix(0.17266935368782424 0.046266613878256396 -0.046266613878256396 0.17266935368782424 318.16938781605467 294.88508190041995)" id="L1_56"><g transform="matrix(1 0 0 1 7 1)"><path d="M413.694,339.48L413.694,339.48c-12.8,5.12-32.427,5.12-32.427,5.12c-11.947,0-23.04,0-34.133-0.853   l0,0c-18.773-17.067-25.6-40.96-25.6-40.96c-8.533-51.2,30.72-69.973,30.72-69.973l0,0   C371.88,254.147,395.773,290.84,413.694,339.48" fill="#50dd8e"/><path d="M245.587,54.467c41.813,34.133,16.213,76.8,16.213,76.8c-17.067-17.067-34.133-8.533-34.133-8.533   s-0.853,23.04,7.68,40.107l-0.853,1.707c-17.92-4.267-35.84-7.68-50.347-7.68c-46.933,0-85.333,12.8-85.333,59.733   c0,41.813,58.88,87.893,150.187,111.787c17.067,4.267,34.987,8.533,54.613,11.093c13.653,1.707,28.16,3.413,42.667,4.267   c11.093,0.853,23.04,0.853,34.133,0.853c0,0,19.627,0.853,31.573-4.267h0.853c5.973,15.36,11.093,32.427,15.36,50.347l0,0   c-12.8,5.12-30.72,5.12-30.72,5.12c-13.653,0-30.72,0-50.347-1.707C236.2,387.267,48.467,353.133,48.467,208.067   C48.467,88.6,100.52,3.267,185,3.267C218.28,3.267,242.173,24.6,245.587,54.467" fill="#e4f2de"/><path d="M220.84,267.8c-10.24-68.267,33.28-98.133,33.28-98.133l0,0   c18.773,5.973,36.693,13.653,52.907,23.04l0,0c0,0-44.373,32.427-35.84,92.16c0,0,8.533,31.573,34.133,52.907v1.707   c-18.773-2.56-37.547-6.827-54.613-11.093l0.853-1.707C227.667,305.347,220.84,267.8,220.84,267.8" fill="#ffd0a1"/><path d="M352.254,231.96c0,0-39.253,18.773-30.72,69.973c0,0,6.827,23.893,25.6,40.96l0,0   c-14.507-0.853-29.013-2.56-42.667-4.267v-1.707c-25.6-21.333-34.133-52.907-34.133-52.907c-8.533-59.733,35.84-92.16,35.84-92.16   l0,0c12.8,7.68,23.893,15.36,32.427,23.893C342.867,220.867,347.133,225.987,352.254,231.96L352.254,231.96z" fill="#80d6fa"/><g><path d="M347.133,394.093c19.627,0.853,37.547,1.707,50.347,1.707c0,0,17.067,0,30.72-5.12l0,0    c7.68,31.573,11.947,68.267,11.947,107.52c-68.267-34.133-85.333-68.267-85.333-68.267s-8.533-12.8-8.533-34.133L347.133,394.093z    " fill="#ff7474"/><path d="M253.267,169.667L253.267,169.667c0,0-42.667,29.867-33.28,98.133c0,0,7.68,37.547,29.867,58.88    L249,328.387C157.693,304.493,98.813,258.413,98.813,216.6c0-46.933,38.4-59.733,85.333-59.733c14.507,0,32.427,2.56,50.347,7.68    C241.32,165.4,247.294,167.96,253.267,169.667" fill="#ff7474"/></g><path d="M193.533,54.467c4.267,0,8.533,4.267,8.533,8.533s-4.267,8.533-8.533,8.533   c-4.267,0-8.533-4.267-8.533-8.533S189.267,54.467,193.533,54.467" fill="#80d6fa"/></g><path d="M448,503.467c-0.853,0-1.707,0-1.707-0.853c-69.12-34.133-86.187-69.12-87.04-69.973  c-0.853-1.707,0-4.267,1.707-5.973c1.707-0.853,4.267,0,5.973,1.707c0,0,16.213,31.573,76.8,63.147  c-1.707-133.12-56.32-217.6-85.333-254.293c-8.533,5.12-32.427,23.893-25.6,64c0,2.56-0.853,4.267-3.413,5.12  c-2.56,0-4.267-0.853-5.12-3.413c-6.827-42.667,17.92-64.853,28.16-71.68c-4.267-5.12-7.68-8.533-10.24-11.093  c-7.68-7.68-17.92-15.36-29.013-21.333c-8.533,6.827-39.253,36.693-32.427,86.187c0,2.56-1.707,4.267-3.413,5.12  c-2.56,0-4.267-1.707-5.12-3.413c-6.827-50.347,21.333-81.067,33.28-92.16c-13.653-7.68-29.013-13.653-44.373-18.773  c-7.68,5.973-38.4,34.133-29.867,93.013c0,2.56-1.707,4.267-3.413,5.12c-2.56,0-4.267-1.707-5.12-3.413  c-7.68-54.613,17.067-85.333,29.013-97.28c-22.187-6.827-43.52-10.24-59.733-10.24c-55.467,0-81.067,17.92-81.067,55.467  c0,58.027,118.613,123.733,277.333,123.733c2.56,0,4.267,1.707,4.267,4.267c0,2.56-1.707,4.267-4.267,4.267  c-163.84,0-285.867-69.973-285.867-132.267c0-42.667,29.013-64,89.6-64c45.227,0,120.32,24.747,157.013,60.587  c23.893,23.893,103.253,116.907,103.253,285.013c0,1.707-0.853,2.56-1.707,3.413C449.707,503.467,448.854,503.467,448,503.467z   M405.333,401.067c-82.773,0-354.133-13.653-354.133-192C51.2,83.627,107.52,0,192,0c21.333,0,39.253,7.68,51.2,23.04  c6.827,8.533,11.947,19.627,13.653,30.72c41.813,35.84,16.213,80.213,15.36,81.067c-0.853,0.853-1.707,1.707-3.413,1.707  c-1.707,0-2.56,0-3.413-0.853c-14.507-14.507-29.013-7.68-29.013-7.68c-1.707,0.853-4.267,0-5.973-1.707  c-1.707-1.707,0-4.267,1.707-5.973c0.853,0,17.067-8.533,34.987,5.12c4.267-10.24,11.947-35.84-10.24-58.88  c0,5.12-0.853,10.24-1.707,15.36c-0.853,2.56-2.56,3.413-5.12,3.413c-2.56-0.853-3.413-2.56-3.413-5.12  c1.707-7.68,1.707-15.36,0.853-23.04c0-0.853,0-1.707,0-2.56c-1.707-10.24-5.12-19.627-11.947-27.307  c-10.24-12.8-26.453-19.627-44.373-19.627c-79.36,0-132.267,80.213-132.267,200.533c0,169.813,264.533,183.467,345.6,183.467  c2.56,0,4.267,1.707,4.267,4.267C408.747,398.507,407.894,401.067,405.333,401.067z M200.533,76.8c-6.827,0-12.8-5.973-12.8-12.8  c0-6.827,5.973-12.8,12.8-12.8s12.8,5.973,12.8,12.8C213.333,70.827,207.36,76.8,200.533,76.8z M200.533,59.733  c-2.56,0-4.267,1.707-4.267,4.267c0,2.56,1.707,4.267,4.267,4.267S204.8,66.56,204.8,64C204.8,61.44,203.094,59.733,200.533,59.733z  " fill="#51565f"/></g><g transform="matrix(0.18365922570228577 0 0 0.18365922570228577 217.5 217.5)" id="L1_57"><path d="M180.201,129.935c-23.865,0-43.212-19.347-43.212-43.212c0-23.866,19.347-43.212,43.212-43.212" fill="#f9b233" id="XMLID_1142_"/><path d="M324.242,454.028c0,0-75.62-45.864-93.627-64.819c-16.203-17.056-43.212-79.223-43.212-79.223    V75.919c0-37.787,30.633-68.42,68.42-68.42l0,0c37.787,0,68.419,30.632,68.419,68.42V454.028z" fill="#be1622" id="XMLID_1074_"/><path d="M324.242,454.028c0,0-75.62-45.864-93.627-64.819c-16.203-17.056-43.212-79.223-43.212-79.223    l-7.202-93.627h144.041" fill="#be1622" id="XMLID_1137_"/><path d="M237.816,403.613l-50.415-79.223V57.914c0-27.843,22.571-50.414,50.414-50.414l0,0L237.816,403.613    L237.816,403.613z" fill="#cb454e" id="XMLID_953_"/><path d="M360.252,396.411l-108.031-93.627v-75.622c0-29.832,24.184-54.015,54.015-54.015l0,0    c29.832,0,54.015,24.184,54.015,54.015L360.252,396.411L360.252,396.411z" fill="#3aaa35" id="XMLID_702_"/><circle cx="252" cy="79" r="36" fill="#eeeeee" id="XMLID_1138_"/><path d="M360.252,396.411 317.04,360.401 317.04,173.147 360.252,209.158z" fill="#f9b233" id="XMLID_1141_"/><path d="M252.22,36.01c-23.991,0-43.51,19.519-43.51,43.51s19.519,43.51,43.51,43.51   c23.992,0,43.511-19.519,43.511-43.51S276.213,36.01,252.22,36.01z M252.22,108.031c-13.125,0-24.2-8.918-27.502-21.01h13.098v-15   h-13.098c3.302-12.093,14.377-21.01,27.502-21.01c15.721,0,28.511,12.79,28.511,28.51S267.941,108.031,252.22,108.031z" fill="#1d1d1b"/><rect x="266px" y="302px" width="15px" height="28px" fill="#1d1d1b" id="XMLID_435_"/><rect x="287px" y="324px" width="15px" height="28px" fill="#1d1d1b" id="XMLID_436_"/><rect x="309px" y="345px" width="15px" height="28px" fill="#1d1d1b" id="XMLID_437_"/><rect x="331px" y="360px" width="15px" height="28px" fill="#1d1d1b" id="XMLID_438_"/><rect x="244px" y="410px" width="15px" height="50px" fill="#1d1d1b" id="XMLID_439_"/><path d="M295.73,490.038h-15c0-15.721-12.79-28.51-28.511-28.51c-15.721,0-28.51,12.789-28.51,28.51h-15    c0-23.992,19.519-43.51,43.51-43.51C276.213,446.528,295.73,466.046,295.73,490.038z" fill="#1d1d1b" id="XMLID_440_"/><path d="M331.742,171.206V79.521C331.742,35.673,296.069,0,252.22,0c-30.771,0-57.496,17.58-70.711,43.212   h-8.512c-27.963,0-50.712,22.75-50.712,50.712v7.5h15.065c3.14,17.99,17.36,32.209,35.349,35.35V256.69   c0,75.591,41.146,145.179,107.38,181.608l51.662,28.414v-70.301h-15v44.932l-29.434-16.189   c-61.44-33.792-99.608-98.344-99.608-168.464v-32.83h57.112c-0.058,1.094-0.091,2.195-0.091,3.303v90.026h15v-90.026   c0-25.648,20.867-46.515,46.516-46.515s46.516,20.867,46.516,46.515v176.451h15V227.163   C367.752,202.339,352.964,180.919,331.742,171.206z M172.997,58.212h2.625c-1.891,6.787-2.923,13.927-2.923,21.308v6.904h-34.622   C141.533,70.322,155.879,58.212,172.997,58.212z M152.699,101.425h20.001v20.002C162.999,118.778,155.346,111.126,152.699,101.425z    M247.501,208.86h-59.801V79.521c0-35.577,28.945-64.521,64.522-64.521s64.521,28.944,64.521,64.521v87.043   c-3.417-0.591-6.923-0.916-10.506-0.916C278.688,165.647,255.311,183.85,247.501,208.86z" fill="#1d1d1b"/></g><g transform="matrix(0.0390625 0 0 0.0390625 77.5 340)" id="L1_58"><path d="M208.242,122.454c-14.683,0-26.629,11.946-26.629,26.629c0,14.683,11.946,26.629,26.629,26.629    c14.683,0,26.629-11.946,26.629-26.629S222.925,122.454,208.242,122.454z"/><path d="M490.765,390.475c-1.929-10.02-11.614-16.58-21.635-14.65c-14.639,2.821-29.673,2.174-43.9-1.7    c16.703-12.706,30.349-29.239,39.587-48.339c4.441-9.186,0.597-20.234-8.589-24.677c-9.183-4.44-20.234-0.597-24.677,8.589    c-7.306,15.107-18.416,27.999-32.065,37.48v-15.394c0-31.666-11.011-62.106-31.142-86.52v-70.331    c0-31.556-14.375-59.812-36.914-78.584c14.971-6.417,28.498-16.055,39.487-28.338l9.351-10.45    c6.803-7.603,6.155-19.283-1.45-26.088c-7.602-6.801-19.282-6.158-26.089,1.45l-9.351,10.45    c-6.138,6.861-13.462,12.478-21.537,16.656c3.082-14.815,3.195-30.213,0.149-45.224c-2.029-9.999-11.777-16.464-21.781-14.432    c-10,2.029-16.46,11.78-14.432,21.781c3.354,16.529,1.025,33.763-6.528,48.803c-1.418,0.563-2.743,1.287-3.951,2.157    c-3.036-0.272-6.103-0.435-9.208-0.435H152.186c-1.298,0-2.563,0.128-3.811,0.315c-1.081-0.197-2.192-0.315-3.331-0.315h-11.461    c-62.135,0-112.685,50.551-112.685,112.686c0,18.337,14.918,33.256,33.256,33.256h72.424v117.597    c0,49.089,39.938,89.027,89.026,89.027h13.381v49.804H206.73c-10.203,0-18.475,8.272-18.475,18.475    c0,10.203,8.272,18.475,18.475,18.475h81.828c10.203,0,18.475-8.272,18.475-18.475c0-10.203-8.272-18.475-18.475-18.475h-22.621    v-31.747c25.542,27.783,61.724,44.152,100.293,44.152c18.337,0,33.256-14.918,33.256-33.256v-49.891    c16.297,6.74,33.766,10.211,51.348,10.211c8.441,0,16.91-0.796,25.281-2.408C486.135,410.181,492.694,400.496,490.765,390.475z     M126.579,181.673h-68.64c1.82-37.714,31.361-68.271,68.64-71.709V181.673z M263.105,195.403    c-18.337,0-33.256,14.918-33.256,33.256v122.416c0,12.6,1.78,25.146,5.221,37.222h-19.464c-28.714,0-52.075-23.362-52.075-52.076    v-226.59h102.562c36.007,0,65.302,29.293,65.302,65.302V213.9C310.784,201.929,287.222,195.403,263.105,195.403z M362.535,450.437    c-34.285-1.281-65.578-20.317-82.748-50.433c-0.552-1.4-1.269-2.715-2.128-3.923c-7.107-13.884-10.859-29.386-10.859-45.005    v-118.65c26.3,1,51.443,12.621,69.464,32.235c16.941,18.436,26.271,42.275,26.271,67.126V450.437z"/></g><path d="M490.766,390.476c-1.929-10.019-11.611-16.58-21.635-14.65c-14.639,2.819-29.673,2.174-43.9-1.701    c16.703-12.706,30.349-29.239,39.587-48.339c4.441-9.186,0.597-20.234-8.589-24.677c-9.184-4.441-20.234-0.597-24.677,8.589    c-7.306,15.107-18.416,27.999-32.065,37.481v-15.394c0-31.666-11.011-62.106-31.142-86.52v-70.331    c0-31.556-14.375-59.812-36.914-78.585c14.971-6.417,28.498-16.055,39.487-28.338l9.351-10.45    c6.803-7.603,6.155-19.283-1.45-26.089c-7.603-6.8-19.283-6.157-26.089,1.45l-9.351,10.45    c-6.138,6.861-13.462,12.478-21.537,16.656c3.082-14.815,3.195-30.214,0.149-45.224c-2.029-10-11.775-16.46-21.781-14.432    c-10,2.029-16.46,11.78-14.432,21.781c3.354,16.529,1.025,33.763-6.528,48.803c-1.413,0.562-2.729,1.292-3.935,2.158    c-3.041-0.273-6.113-0.436-9.224-0.436H152.186c-1.298,0-2.563,0.128-3.811,0.315c-1.081-0.197-2.192-0.315-3.331-0.315h-11.461    c-62.135,0-112.685,50.551-112.685,112.687c0,18.338,14.918,33.256,33.256,33.256h72.424v117.597    c0,49.089,39.938,89.027,89.026,89.027h13.381v49.804H206.73c-10.203,0-18.475,8.272-18.475,18.475s8.272,18.475,18.475,18.475    h81.828c10.203,0,18.475-8.272,18.475-18.475s-8.272-18.475-18.475-18.475h-22.621v-31.77    c25.539,27.793,61.718,44.176,100.293,44.176c18.337,0,33.256-14.918,33.256-33.256v-49.891    c16.297,6.74,33.766,10.211,51.348,10.211c8.441,0,16.91-0.796,25.281-2.408C486.136,410.182,492.696,400.498,490.766,390.476z     M208.242,175.713c-14.683,0-26.629-11.946-26.629-26.629s11.946-26.629,26.629-26.629s26.629,11.946,26.629,26.629    S222.925,175.713,208.242,175.713z" transform="matrix(0.078125 0 0 0.078125 155 330)" id="L1_59"/><g transform="matrix(0.0390625 0 0 0.0390625 252.5 340)" id="L1_60"><path d="M446.492,232.643c-0.099-0.951-0.228-1.889-0.388-2.815c-1.357-9.232-3.417-17.613-6.111-28.557   c-0.514-2.089-1.053-4.276-1.615-6.587c-3.399-13.97-3.881-28.175-1.432-42.221c3.404-19.534,5.281-42.864-6.618-67.786   c-1.852-3.878-4.172-7.615-6.851-11.209c-0.521-1.381-1.423-2.637-2.694-3.585c-0.119-0.089-0.239-0.171-0.359-0.259   c-15.399-18.322-39.941-32.612-59.839-42.062C332.319,14.14,299.052,3.86,275.795,1.363c-0.188-0.023-0.378-0.043-0.568-0.061   l-0.033-0.002c-0.083-0.011-0.166-0.021-0.249-0.029l-1.498-0.156c-3.558-0.432-7.321-0.735-11.186-0.902   C259.769,0.071,257.663,0,256,0c-1.674,0-3.805,0.072-6.334,0.215c-3.452,0.151-6.896,0.423-10.241,0.81   c-23.142,2.249-56.926,12.338-86.099,25.714C127.16,38.735,93.335,58.523,80.788,84.663c-12.177,25.369-10.165,48.873-6.177,70.492   c2.431,13.176,1.961,27.017-1.395,41.14c-0.585,2.46-1.143,4.775-1.673,6.976c-2.229,9.251-3.998,16.598-5.262,24.291   c-0.453,1.973-0.783,4.002-0.951,6.093c-0.021,0.257-0.026,0.511-0.023,0.764C64.447,241.621,64,249.617,64,260   c0,50.897,11.079,91.357,32.929,120.258c19.67,26.018,47.54,43.068,85.2,52.126c1.778,0.428,3.557,0.217,5.109-0.472   c9.822,13.134,21.808,24.008,35.152,31.146c0.344,0.184,0.696,0.333,1.052,0.463c0.433,1.221,0.865,2.429,1.292,3.599   C234.574,494.059,243.656,512,256,512s21.426-17.941,31.265-44.881c0.427-1.17,0.859-2.379,1.293-3.6   c0.357-0.13,0.711-0.279,1.056-0.463c13.34-7.137,25.322-18.008,35.142-31.137c1.004,0.446,2.104,0.689,3.237,0.689   c0.619,0,1.249-0.072,1.877-0.224c37.661-9.058,65.53-26.108,85.2-52.126C436.921,351.357,448,310.897,448,260   C448,248.844,447.482,240.346,446.492,232.643z M241.041,16.942c0.051-0.005,0.102-0.01,0.153-0.017   c3.005-0.348,6.108-0.593,9.221-0.729c0.035-0.001,0.071-0.003,0.106-0.005C252.74,16.066,254.634,16,256,16   c1.354,0,3.223,0.065,5.407,0.19c0.038,0.002,0.076,0.004,0.114,0.006c3.493,0.148,6.877,0.422,10.059,0.811   c0.059,0.007,0.118,0.014,0.177,0.02l1.44,0.149c0.177,0.021,0.358,0.04,0.549,0.056c0.087,0.012,0.174,0.022,0.261,0.032   c21.617,2.305,52.906,12.021,79.713,24.752c8.459,4.017,16.213,8.198,23.205,12.482c-11.965,0.165-24.239,3.653-36.756,10.479   c-13.312,7.259-30.669,2.522-49.046-2.491c-11.687-3.188-23.772-6.486-35.125-6.486s-23.438,3.298-35.125,6.486   c-18.376,5.014-35.734,9.749-49.045,2.491c-12.643-6.894-25.036-10.379-37.115-10.478C168.93,33.945,215.201,19.436,241.041,16.942   z M176,352c0-24.35,2.876-35.587,6.719-42.084c4.664,21.847,10.04,45.214,15.522,67.034c5.832,23.209,11.614,44.137,17.103,61.956   C191.87,418.905,176,384.998,176,352z M256,495.193c-2.495-2.634-8.662-11.498-18.71-40.528   c-7.704-22.257-16.386-52.665-25.107-87.937C196.311,302.534,184,237.292,184,224c0-10.614,9.495-35.505,27.642-62.541   C230.866,132.819,247.772,120,256,120s25.134,12.819,44.358,41.459C318.505,188.495,328,213.386,328,224   c0,13.292-12.311,78.534-28.183,142.729c-8.721,35.271-17.403,65.68-25.107,87.937C264.662,483.695,258.495,492.56,256,495.193z    M296.656,438.904c5.489-17.819,11.271-38.746,17.103-61.955c5.449-21.688,10.793-44.905,15.438-66.639   C333.363,317.07,336,327.579,336,352C336,384.997,320.13,418.904,296.656,438.904z M402.308,370.608   c-15.616,20.656-37.394,34.948-66.322,43.549C346.073,395.129,352,373.376,352,352c0-39.603-6.864-49.469-18.167-61.011   l-0.507-0.519C339.714,258.879,344,233.045,344,224c0-18.121-15.247-48.946-30.357-71.458C301.474,134.413,277.804,104,256,104   s-45.474,30.413-57.643,48.542C183.247,175.054,168,205.879,168,224c0,9.042,4.283,34.86,10.668,66.435   C168.054,299.861,160,310.794,160,352c0,21.377,5.926,43.13,16.013,62.158c-28.927-8.601-50.705-22.894-66.321-43.549   C89.99,344.549,80,307.335,80,260c0-12.462,0.666-21.085,1.993-29.35c3.651-14.448,19.094-23.15,29.937-23.15   c4.779,0,8.295,2.909,13.517,7.699c6.599,6.054,16.57,15.2,31.613,7.093c3.889-2.098,5.342-6.949,3.245-10.839   c-2.097-3.889-6.949-5.34-10.838-3.245c-4.412,2.379-6.016,1.793-13.203-4.799c-5.784-5.306-12.982-11.909-24.333-11.909   c-7.568,0-15.505,2.238-22.65,6.28c3.409-15.542,3.773-30.847,1.065-45.527c-3.257-17.659-5.836-38.367,4.867-60.666   c1.429-2.977,3.268-5.913,5.457-8.801c0.037-0.027,0.077-0.049,0.114-0.076c20.215-15.073,40.357-16.244,63.388-3.687   c18.968,10.342,41.254,4.263,60.917-1.103c11.162-3.045,21.704-5.922,30.913-5.922s19.751,2.877,30.913,5.922   c11.854,3.234,24.658,6.729,37.117,6.729c8.208-0.001,16.268-1.518,23.801-5.626c22.318-12.17,41.923-11.447,61.512,2.328   c2.734,3.426,4.934,6.841,6.548,10.221c9.933,20.805,8.415,40.24,5.294,58.144c-2.789,16.002-2.282,32.174,1.493,48.08   c-7.152-4.052-15.1-6.296-22.677-6.296c-11.351,0-18.549,6.604-24.333,11.909c-7.188,6.596-8.793,7.178-13.204,4.799   c-3.887-2.095-8.741-0.645-10.838,3.245s-0.644,8.742,3.245,10.839c15.042,8.109,25.014-1.039,31.613-7.093   c5.222-4.79,8.738-7.699,13.517-7.699c11.201,0,27.312,9.285,30.26,24.598c1.158,7.855,1.74,16.265,1.74,27.902   C432,307.335,422.01,344.549,402.308,370.608z"/><path d="M120,104.125c-9.57,0-16,11.252-16,28s6.43,28,16,28s16-11.252,16-28S129.57,104.125,120,104.125z"/><path d="M392,160.125c9.57,0,16-11.252,16-28s-6.43-28-16-28s-16,11.252-16,28S382.43,160.125,392,160.125z"/></g><g transform="matrix(0.078125 0 0 0.078125 67.5 67.5)" id="L1_61"><path d="M512,256c0,2.508-0.031,4.995-0.104,7.481c-0.24,8.338-0.878,16.572-1.912,24.68  c-1.484,11.88-3.783,23.51-6.844,34.826c-5.454,20.187-13.322,39.382-23.28,57.26c-2.508,4.535-5.162,8.976-7.941,13.333  C426.454,464.792,346.739,512,256,512c-90.749,0-170.475-47.219-215.928-118.439c-2.779-4.347-5.433-8.788-7.941-13.312  c-9.947-17.878-17.816-37.083-23.27-57.26c-3.062-11.316-5.36-22.946-6.844-34.826c-1.034-8.108-1.672-16.342-1.912-24.68  C0.031,260.995,0,258.508,0,256c0-7.784,0.345-15.485,1.024-23.082c1.87-20.929,6.259-41.138,12.863-60.312  C48.483,72.161,143.809,0,256,0s207.517,72.161,242.113,172.607c6.604,19.174,10.992,39.382,12.863,60.312  C511.655,240.515,512,248.215,512,256z" fill="#63cbff"/><path d="M512,256c0,2.508-0.031,4.995-0.104,7.481c-6.98,3.835-14.994,6.008-23.51,6.008  c-15.768,0-29.78-7.461-38.724-19.048c-8.955,11.588-22.967,19.048-38.734,19.048c-15.768,0-29.79-7.461-38.734-19.048  c-8.944,11.588-22.956,19.048-38.734,19.048c-15.768,0-29.78-7.461-38.724-19.048C285.78,262.029,271.767,269.49,256,269.49  s-29.78-7.461-38.734-19.048c-8.944,11.588-22.956,19.048-38.724,19.048c-15.778,0-29.79-7.461-38.734-19.048  c-8.944,11.588-22.967,19.048-38.734,19.048s-29.78-7.461-38.734-19.048c-8.944,11.588-22.956,19.048-38.724,19.048  c-8.516,0-16.53-2.173-23.51-6.008C0.031,260.995,0,258.508,0,256c0-7.784,0.345-15.485,1.024-23.082  c1.87-20.929,6.259-41.138,12.863-60.312c3.145-0.627,6.395-0.961,9.728-0.961c15.768,0,29.78,7.471,38.724,19.048  c8.955-11.577,22.967-19.048,38.734-19.048s29.79,7.471,38.734,19.048c8.944-11.577,22.956-19.048,38.734-19.048  c15.768,0,29.78,7.471,38.724,19.048c8.955-11.577,22.967-19.048,38.734-19.048s29.78,7.471,38.734,19.048  c8.944-11.577,22.956-19.048,38.724-19.048c15.778,0,29.79,7.471,38.734,19.048c8.944-11.577,22.967-19.048,38.734-19.048  c15.767,0,29.78,7.471,38.734,19.048c8.944-11.577,22.956-19.048,38.724-19.048c3.333,0,6.583,0.334,9.728,0.961  c6.604,19.174,10.992,39.382,12.863,60.312C511.655,240.515,512,248.215,512,256z" fill="#427a2d"/><path d="M512,256c0,2.508-0.031,4.995-0.104,7.481c-0.596,20.532-3.605,40.458-8.756,59.507  c-4.66,1.463-9.613,2.257-14.754,2.257c-15.768,0-29.78-7.471-38.724-19.048c-8.955,11.577-22.967,19.048-38.734,19.048  c-15.768,0-29.79-7.471-38.734-19.048c-8.944,11.577-22.956,19.048-38.734,19.048c-15.768,0-29.78-7.471-38.724-19.048  c-8.955,11.577-22.967,19.048-38.734,19.048s-29.78-7.471-38.734-19.048c-8.944,11.577-22.956,19.048-38.724,19.048  c-15.778,0-29.79-7.471-38.734-19.048c-8.944,11.577-22.967,19.048-38.734,19.048s-29.78-7.471-38.734-19.048  c-8.944,11.577-22.956,19.048-38.724,19.048c-5.141,0-10.094-0.794-14.754-2.257C3.709,303.94,0.7,284.014,0.104,263.481  C0.031,260.995,0,258.508,0,256c0-7.784,0.345-15.485,1.024-23.082c6.76-3.521,14.44-5.517,22.591-5.517  c15.768,0,29.78,7.461,38.724,19.048c8.955-11.588,22.967-19.048,38.734-19.048s29.79,7.461,38.734,19.048  c8.944-11.588,22.956-19.048,38.734-19.048c15.768,0,29.78,7.461,38.724,19.048c8.955-11.588,22.967-19.048,38.734-19.048  s29.78,7.461,38.734,19.048c8.944-11.588,22.956-19.048,38.724-19.048c15.778,0,29.79,7.461,38.734,19.048  c8.944-11.588,22.967-19.048,38.734-19.048c15.767,0,29.78,7.461,38.734,19.048c8.944-11.588,22.956-19.048,38.724-19.048  c8.15,0,15.83,1.996,22.591,5.517C511.655,240.515,512,248.215,512,256z" fill="#4c8e37"/><path d="M509.983,288.162c-1.484,11.88-3.783,23.51-6.844,34.826c-5.454,20.187-13.322,39.382-23.28,57.26  c-12.236-2.152-22.904-8.861-30.198-18.307c-8.955,11.577-22.967,19.048-38.734,19.048c-15.768,0-29.79-7.471-38.734-19.048  c-8.944,11.577-22.956,19.048-38.734,19.048c-15.768,0-29.78-7.471-38.724-19.048c-8.955,11.577-22.967,19.048-38.734,19.048  s-29.78-7.471-38.734-19.048c-8.944,11.577-22.956,19.048-38.724,19.048c-15.778,0-29.79-7.471-38.734-19.048  c-8.944,11.577-22.967,19.048-38.734,19.048s-29.78-7.471-38.734-19.048c-7.293,9.446-17.962,16.154-30.208,18.307  c-9.947-17.878-17.816-37.083-23.27-57.26c-3.062-11.316-5.36-22.946-6.844-34.826c6.52-3.218,13.845-5.016,21.598-5.016  c15.768,0,29.78,7.461,38.724,19.048c8.955-11.588,22.967-19.048,38.734-19.048s29.79,7.461,38.734,19.048  c8.944-11.588,22.956-19.048,38.734-19.048c15.768,0,29.78,7.461,38.724,19.048c8.955-11.588,22.967-19.048,38.734-19.048  s29.78,7.461,38.734,19.048c8.944-11.588,22.956-19.048,38.724-19.048c15.778,0,29.79,7.461,38.734,19.048  c8.944-11.588,22.967-19.048,38.734-19.048c15.767,0,29.78,7.461,38.734,19.048c8.944-11.588,22.956-19.048,38.724-19.048  C496.138,283.146,503.463,284.944,509.983,288.162z" fill="#69af54"/><path d="M495.95,345.401c-18.118,48.588-50.573,90.206-92.223,119.693C361.994,494.634,311.024,512,256,512  c-22.037,0-43.416-2.779-63.822-8.025c-30.542-7.837-58.89-21.17-83.916-38.891C66.612,435.608,34.158,394,16.05,345.401H495.95z" fill="#427a2d"/><path d="M394.919,471.061C354.91,496.964,307.21,512,256,512c-31.232,0-61.158-5.59-88.827-15.83  c-17.711-6.551-34.492-15.005-50.103-25.119c-0.355-34.22,1.191-68.441,4.65-102.661c0.094-0.93,0.199-1.86,0.303-2.779  c6.228-53.478,34.92-95.295,71.199-103.382c5.36-1.202,10.731-2.247,16.102-3.124c31.128-5.151,62.234-5.151,93.341,0  c5.371,0.878,10.742,1.923,16.102,3.124c17.366,3.877,33.008,15.475,45.244,32.392c13.364,18.411,22.706,43.112,25.955,70.99  c0.104,0.92,0.209,1.849,0.303,2.779C393.728,402.61,395.274,436.84,394.919,471.061z" fill="#e29c37"/><path d="M394.919,471.061C354.91,496.964,307.21,512,256,512c-31.232,0-61.158-5.59-88.827-15.83  c-0.042-31.451,1.526-62.892,4.702-94.344c0.094-0.93,0.199-1.86,0.303-2.779c6.228-53.478,34.92-95.295,71.199-103.382  c5.36-1.202,10.731-2.247,16.102-3.124c31.128-5.151,62.234-5.151,93.341,0c3.73,0.606,7.461,1.296,11.191,2.079  c13.364,18.411,22.706,43.112,25.955,70.99c0.104,0.92,0.209,1.849,0.303,2.779C393.728,402.61,395.274,436.84,394.919,471.061z" fill="#f4b345"/><path d="M196.577,505.062c-10.041-2.382-19.853-5.36-29.403-8.902c-17.701-6.541-34.492-15.005-50.103-25.109  c-0.355-34.22,1.191-68.441,4.65-102.661c0.094-0.93,0.199-1.86,0.303-2.779c0.104,0.021,0.199,0.042,0.303,0.063  c19.362,4.315,36.561,18.233,49.33,38.4c11.588,18.286,19.54,41.702,22.173,67.762C194.947,482.91,195.866,493.986,196.577,505.062z  " fill="#db3e20"/><path d="M394.919,471.061c-24.033,15.559-50.834,27.199-79.506,34.001c0.711-11.076,1.63-22.152,2.748-33.228  c5.538-54.805,34.597-97.938,71.502-106.162c0.105-0.021,0.199-0.042,0.303-0.063c0.104,0.92,0.209,1.849,0.303,2.779  C393.728,402.61,395.274,436.84,394.919,471.061z" fill="#ed4b27"/><path d="M255.409,106.118l-12.489-4.601c-29.384-10.824-44.429-43.42-33.605-72.803l0,0  c2.541-6.897,10.192-10.429,17.089-7.888l0,0c29.384,10.824,44.429,43.42,33.605,72.803L255.409,106.118z" fill="#6191c6"/><path d="M255.409,106.118l-9.381-9.441c-22.072-22.212-21.959-58.112,0.254-80.184l0,0  c5.214-5.181,13.64-5.154,18.822,0.06l0,0c22.072,22.212,21.958,58.112-0.254,80.184L255.409,106.118z" fill="#ed4b27"/><path d="M255.409,106.118l-4.347-12.58c-10.227-29.597,5.475-61.881,35.072-72.108l0,0  c6.948-2.4,14.525,1.285,16.925,8.233l0,0c10.227,29.597-5.475,61.881-35.072,72.108L255.409,106.118z" fill="#f4b345"/><ellipse cx="254px" cy="338px" rx="52px" ry="97px" fill="#e29c37"/><path d="M374.826,266.459c-0.24,1.755-0.491,3.521-0.752,5.287c-4.869,32.455-30.417,58.002-62.871,62.871  c-36.801,5.517-73.603,5.517-110.414,0c-32.455-4.869-58.002-30.417-62.872-62.871c-0.261-1.766-0.512-3.532-0.752-5.287  c-4.754-35.046-4.504-70.081,0.752-105.127c4.869-32.455,30.417-58.002,62.872-62.872c4.723-0.711,9.446-1.327,14.169-1.849  c27.366-3.051,54.721-3.051,82.077,0c4.723,0.522,9.446,1.139,14.169,1.849c32.455,4.869,58.002,30.417,62.871,62.872  C379.329,196.378,379.58,231.414,374.826,266.459z" fill="#e2d8ae"/><path d="M208.165,335.653c-2.456-0.324-4.921-0.669-7.377-1.034c-32.455-4.869-58.002-30.417-62.872-62.872  c-0.261-1.766-0.512-3.532-0.752-5.287c-4.754-35.046-4.504-70.081,0.752-105.127c4.869-32.455,30.417-58.002,62.872-62.872  c2.456-0.366,4.921-0.711,7.377-1.034c-15.715,10.386-27.293,33.322-29.895,61.043c-3.459,36.864-3.626,73.718-0.502,110.582  c0.167,1.851,0.324,3.699,0.502,5.559C180.872,302.331,192.449,325.266,208.165,335.653z" fill="#d3c9a2"/><g><path d="M374.826,266.459c-4.723-0.522-9.446-1.139-14.169-1.851c-32.455-4.869-58.002-30.417-62.872-62.871   c-5.256-35.035-5.507-70.071-0.752-105.127c4.723,0.522,9.446,1.139,14.169,1.849c32.455,4.869,58.002,30.417,62.872,62.871   C379.329,196.378,379.58,231.414,374.826,266.459z" fill="#6191c6"/><path d="M214.204,201.738c-3.5,23.322-17.669,43.071-37.407,54.147c-7.743,4.347-16.332,7.356-25.464,8.725   c-4.723,0.711-9.446,1.328-14.169,1.851c-4.754-35.046-4.504-70.081,0.752-105.127c4.796-31.943,29.612-57.187,61.336-62.631   c0.512-0.084,1.024-0.167,1.536-0.24c2.361-0.355,4.723-0.679,7.084-0.993c0.042-0.01,0.094-0.021,0.146-0.021   c0.042-0.01,0.084-0.01,0.136-0.01c0-0.01,0.01-0.01,0.01-0.01c2.267-0.293,4.524-0.564,6.792-0.815   C219.711,131.668,219.46,166.703,214.204,201.738z" fill="#6191c6"/></g><path d="M296.265,288.743c7.388-11.596,11.826-26.438,11.826-42.617c0-37.103-23.323-67.18-52.094-67.18  s-52.094,30.077-52.094,67.18c0,22.967,8.941,43.235,22.577,55.348c4.717,4.19,9.187,8.652,13.055,13.636  c2.27,2.924,4.474,5.944,6.494,8.978c4.734,7.113,15.2,7.113,19.936,0c1.527-2.293,3.159-4.578,4.844-6.819  c4.159-5.53,8.795-10.707,14.042-15.215C289.148,298.363,292.997,293.873,296.265,288.743L296.265,288.743L296.265,288.743z" fill="#475f68"/><path d="M208.165,97.426c0,0-0.01,0-0.01,0.01c-15.705,10.386-27.282,33.322-29.884,61.032  c-3.051,32.475-3.542,64.94-1.473,97.416c-7.743,4.347-16.332,7.356-25.464,8.725c-4.723,0.711-9.446,1.328-14.169,1.851  c-4.754-35.046-4.504-70.081,0.752-105.127c4.796-31.943,29.612-57.187,61.336-62.631c0.512-0.084,1.024-0.167,1.536-0.24  c2.361-0.355,4.723-0.679,7.084-0.993c0.042-0.01,0.094-0.021,0.146-0.021C208.071,97.437,208.123,97.437,208.165,97.426z" fill="#5586b2"/><path d="M256.006,329.425c-3.804,0-7.609-1.783-9.968-5.336c-2.022-3.039-4.231-6.051-6.491-8.977  c-3.88-4.984-8.35-9.454-13.057-13.635c-13.635-12.116-22.587-32.38-22.587-55.356c0-37.101,23.327-67.183,52.104-67.183  c-15.254,0-27.622,30.083-27.622,67.183c0,22.976,4.746,43.24,11.965,55.356c2.498,4.181,4.871,8.65,6.931,13.635  c1.192,2.926,2.373,5.938,3.44,8.977C251.976,327.642,253.997,329.425,256.006,329.425z" fill="#394f59"/><g><path d="M336.057,232.742c-12.523,0-22.711-10.188-22.711-22.711c0-10.25,6.908-19.267,16.799-21.927   c1.936-0.519,3.924-0.783,5.911-0.783c12.523,0,22.711,10.188,22.711,22.711c0,1.987-0.263,3.975-0.783,5.908   C355.325,225.833,346.307,232.742,336.057,232.742z" fill="#5586b2"/><path d="M175.933,232.742c-12.523,0-22.711-10.188-22.711-22.711c0-10.25,6.908-19.267,16.799-21.927   c1.936-0.519,3.924-0.783,5.911-0.783c12.523,0,22.711,10.188,22.711,22.711c0,1.987-0.263,3.975-0.783,5.908   C195.199,225.833,186.183,232.742,175.933,232.742z" fill="#5586b2"/></g><g><path d="M348.359,210.031c0,1.108-0.151,2.186-0.426,3.208c-1.41,5.242-6.189,9.094-11.875,9.094   c-6.794,0-12.302-5.508-12.302-12.302c0-5.687,3.852-10.466,9.094-11.875c1.022-0.275,2.1-0.426,3.208-0.426   C342.851,197.729,348.359,203.237,348.359,210.031z" fill="#0f0f0e"/><circle cx="175" cy="210" r="12" fill="#0f0f0e"/></g><g><path d="M348.359,210.031c0,1.108-0.151,2.186-0.426,3.208c-1.448,0.672-3.075,1.05-4.778,1.05   c-6.274,0-11.355-5.081-11.355-11.355c0-1.703,0.378-3.331,1.05-4.778c1.022-0.275,2.1-0.426,3.208-0.426   C342.851,197.729,348.359,203.237,348.359,210.031z" fill="#e6e6e6"/><path d="M188.234,210.031c0,1.108-0.152,2.186-0.426,3.208c-1.448,0.672-3.075,1.05-4.778,1.05   c-6.274,0-11.355-5.081-11.355-11.355c0-1.703,0.378-3.331,1.05-4.778c1.022-0.275,2.1-0.426,3.208-0.426   C182.727,197.729,188.234,203.237,188.234,210.031z" fill="#e6e6e6"/></g><path d="M196.577,505.062c-10.041-2.382-19.853-5.36-29.403-8.902c-0.042-30.699,1.452-61.388,4.483-92.087  c11.588,18.286,19.54,41.702,22.173,67.762C194.947,482.91,195.866,493.986,196.577,505.062z" fill="#ed4b27"/></g><g transform="matrix(0.09765625 0 0 0.09765625 62.5 237.5)" id="L1_62"><path d="M421,60h-37.98C366.529,41.599,342.595,30,316,30c-10.5,0-20.583,1.813-29.96,5.134c-0.025-0.853-0.04-1.707-0.04-2.56V15    c0-8.284-6.716-15-15-15s-15,6.716-15,15v17.574c0,6.378,0.531,12.748,1.564,19.036c-5.073,4.341-9.662,9.231-13.667,14.584    C232.382,51.802,226,33.875,226,15c0-8.284-6.716-15-15-15s-15,6.716-15,15c0,30.383,12.112,58.971,33.546,79.967    C227.24,102.917,226,111.316,226,120v65.617c-36.476,13.448-60,49.038-60,86.384v30h-15c-36.668,0-67.253,26.458-73.72,61.28    C42.458,369.747,16,400.333,16,437c0,8.284,6.716,15,15,15c6.749,0,232.535,0,240,0c5.07,0,10.073-0.291,15-0.838V482h-45    c-8.284,0-15,6.716-15,15s6.716,15,15,15h120c8.284,0,15-6.716,15-15s-6.716-15-15-15h-45v-37.722    c52.38-18.574,90-68.611,90-127.278V208.491c29.344-5.98,52.51-29.147,58.491-58.491H481c8.284,0,15-6.716,15-15    C496,93.645,462.355,60,421,60z M166,422H48.57c6.191-17.461,22.874-30,42.43-30h75V422z M166,362h-57.42    c6.192-17.458,22.865-30,42.42-30h15V362z M238.765,408.998c0.526-0.8,1.049-1.603,1.554-2.419    c10.259-16.6,15.682-35.688,15.682-55.202V287c0-8.284-6.716-15-15-15s-15,6.716-15,15v64.377c0,24.035-11.229,46.028-30,60.023    V272H196c0-32.749,26.713-61.927,60.594-61.927c4.61,0,9.289,0.537,13.974,1.624C296.469,217.707,316,245.47,316,276.278V287    C316,340.78,284.383,387.31,238.765,408.998z M376,317c0,56.244-44.453,102.297-100.07,104.881    C318.284,391.983,346,342.67,346,287v-10.723c0-42.459-27.222-84.192-68.652-93.804c-7.097-1.646-14.256-2.413-21.348-2.348V120    c0-33.084,26.916-60,60-60s60,26.916,60,60V317z M406,177.42V149.9h27.42C428.893,162.664,418.764,172.893,406,177.42z M406,120    c0-10.515-1.819-20.612-5.148-30H421c19.557,0,36.239,12.539,42.43,30H406z"/><circle cx="331" cy="105" r="15"/></g></defs><g fi:class="KUsePattern"><pattern id="pattern_L1_53" width="350" height="350" patternUnits="userSpaceOnUse"><use xlink:href="#L1_53" x="-350" y="-350"/><use xlink:href="#L1_53" x="0" y="-350"/><use xlink:href="#L1_53" x="350" y="-350"/><use xlink:href="#L1_53" x="-350" y="0"/><use xlink:href="#L1_53" x="0" y="0"/><use xlink:href="#L1_53" x="350" y="0"/><use xlink:href="#L1_53" x="-350" y="350"/><use xlink:href="#L1_53" x="0" y="350"/><use xlink:href="#L1_53" x="350" y="350"/></pattern><rect x="0" y="0" width="100%" height="100%" fill="url(#pattern_L1_53)"/></g><g fi:class="KUsePattern"><pattern id="pattern_L1_54" width="350" height="350" patternUnits="userSpaceOnUse"><use xlink:href="#L1_54" x="-350" y="-350"/><use xlink:href="#L1_54" x="0" y="-350"/><use xlink:href="#L1_54" x="350" y="-350"/><use xlink:href="#L1_54" x="-350" y="0"/><use xlink:href="#L1_54" x="0" y="0"/><use xlink:href="#L1_54" x="350" y="0"/><use xlink:href="#L1_54" x="-350" y="350"/><use xlink:href="#L1_54" x="0" y="350"/><use xlink:href="#L1_54" x="350" y="350"/></pattern><rect x="0" y="0" width="100%" height="100%" fill="url(#pattern_L1_54)"/></g><g fi:class="KUsePattern"><pattern id="pattern_L1_55" width="350" height="350" patternUnits="userSpaceOnUse"><use xlink:href="#L1_55" x="-350" y="-350"/><use xlink:href="#L1_55" x="0" y="-350"/><use xlink:href="#L1_55" x="350" y="-350"/><use xlink:href="#L1_55" x="-350" y="0"/><use xlink:href="#L1_55" x="0" y="0"/><use xlink:href="#L1_55" x="350" y="0"/><use xlink:href="#L1_55" x="-350" y="350"/><use xlink:href="#L1_55" x="0" y="350"/><use xlink:href="#L1_55" x="350" y="350"/></pattern><rect x="0" y="0" width="100%" height="100%" fill="url(#pattern_L1_55)"/></g><g fi:class="KUsePattern"><pattern id="pattern_L1_56" width="350" height="350" patternUnits="userSpaceOnUse"><use xlink:href="#L1_56" x="-350" y="-350"/><use xlink:href="#L1_56" x="0" y="-350"/><use xlink:href="#L1_56" x="350" y="-350"/><use xlink:href="#L1_56" x="-350" y="0"/><use xlink:href="#L1_56" x="0" y="0"/><use xlink:href="#L1_56" x="350" y="0"/><use xlink:href="#L1_56" x="-350" y="350"/><use xlink:href="#L1_56" x="0" y="350"/><use xlink:href="#L1_56" x="350" y="350"/></pattern><rect x="0" y="0" width="100%" height="100%" fill="url(#pattern_L1_56)"/></g><g fi:class="KUsePattern"><pattern id="pattern_L1_57" width="350" height="350" patternUnits="userSpaceOnUse"><use xlink:href="#L1_57" x="-350" y="-350"/><use xlink:href="#L1_57" x="0" y="-350"/><use xlink:href="#L1_57" x="350" y="-350"/><use xlink:href="#L1_57" x="-350" y="0"/><use xlink:href="#L1_57" x="0" y="0"/><use xlink:href="#L1_57" x="350" y="0"/><use xlink:href="#L1_57" x="-350" y="350"/><use xlink:href="#L1_57" x="0" y="350"/><use xlink:href="#L1_57" x="350" y="350"/></pattern><rect x="0" y="0" width="100%" height="100%" fill="url(#pattern_L1_57)"/></g><g fi:class="KUsePattern"><pattern id="pattern_L1_58" width="350" height="350" patternUnits="userSpaceOnUse"><use xlink:href="#L1_58" x="-350" y="-350"/><use xlink:href="#L1_58" x="0" y="-350"/><use xlink:href="#L1_58" x="350" y="-350"/><use xlink:href="#L1_58" x="-350" y="0"/><use xlink:href="#L1_58" x="0" y="0"/><use xlink:href="#L1_58" x="350" y="0"/><use xlink:href="#L1_58" x="-350" y="350"/><use xlink:href="#L1_58" x="0" y="350"/><use xlink:href="#L1_58" x="350" y="350"/></pattern><rect x="0" y="0" width="100%" height="100%" fill="url(#pattern_L1_58)"/></g><g fi:class="KUsePattern"><pattern id="pattern_L1_59" width="350" height="350" patternUnits="userSpaceOnUse"><use xlink:href="#L1_59" x="-350" y="-350"/><use xlink:href="#L1_59" x="0" y="-350"/><use xlink:href="#L1_59" x="350" y="-350"/><use xlink:href="#L1_59" x="-350" y="0"/><use xlink:href="#L1_59" x="0" y="0"/><use xlink:href="#L1_59" x="350" y="0"/><use xlink:href="#L1_59" x="-350" y="350"/><use xlink:href="#L1_59" x="0" y="350"/><use xlink:href="#L1_59" x="350" y="350"/></pattern><rect x="0" y="0" width="100%" height="100%" fill="url(#pattern_L1_59)"/></g><g fi:class="KUsePattern"><pattern id="pattern_L1_60" width="350" height="350" patternUnits="userSpaceOnUse"><use xlink:href="#L1_60" x="-350" y="-350"/><use xlink:href="#L1_60" x="0" y="-350"/><use xlink:href="#L1_60" x="350" y="-350"/><use xlink:href="#L1_60" x="-350" y="0"/><use xlink:href="#L1_60" x="0" y="0"/><use xlink:href="#L1_60" x="350" y="0"/><use xlink:href="#L1_60" x="-350" y="350"/><use xlink:href="#L1_60" x="0" y="350"/><use xlink:href="#L1_60" x="350" y="350"/></pattern><rect x="0" y="0" width="100%" height="100%" fill="url(#pattern_L1_60)"/></g><g fi:class="KUsePattern"><pattern id="pattern_L1_61" width="350" height="350" patternUnits="userSpaceOnUse"><use xlink:href="#L1_61" x="-350" y="-350"/><use xlink:href="#L1_61" x="0" y="-350"/><use xlink:href="#L1_61" x="350" y="-350"/><use xlink:href="#L1_61" x="-350" y="0"/><use xlink:href="#L1_61" x="0" y="0"/><use xlink:href="#L1_61" x="350" y="0"/><use xlink:href="#L1_61" x="-350" y="350"/><use xlink:href="#L1_61" x="0" y="350"/><use xlink:href="#L1_61" x="350" y="350"/></pattern><rect x="0" y="0" width="100%" height="100%" fill="url(#pattern_L1_61)"/></g><g fi:class="KUsePattern"><pattern id="pattern_L1_62" width="350" height="350" patternUnits="userSpaceOnUse"><use xlink:href="#L1_62" x="-350" y="-350"/><use xlink:href="#L1_62" x="0" y="-350"/><use xlink:href="#L1_62" x="350" y="-350"/><use xlink:href="#L1_62" x="-350" y="0"/><use xlink:href="#L1_62" x="0" y="0"/><use xlink:href="#L1_62" x="350" y="0"/><use xlink:href="#L1_62" x="-350" y="350"/><use xlink:href="#L1_62" x="0" y="350"/><use xlink:href="#L1_62" x="350" y="350"/></pattern><rect x="0" y="0" width="100%" height="100%" fill="url(#pattern_L1_62)"/></g></svg>