<svg xmlns="http://www.w3.org/2000/svg" xmlns:xlink="http://www.w3.org/1999/xlink" width="21" height="16" viewBox="0 0 21 16"><defs><path id="1tsna" d="M710 648.5a9.67 9.67 0 0 1-9 6.5c-4.1 0-7.6-2.69-9-6.5a9.67 9.67 0 0 1 9-6.5c4.1 0 7.6 2.69 9 6.5zm-4.9 0c0-2.43-1.8-4.33-4.1-4.33s-4.1 1.9-4.1 4.33 1.8 4.33 4.1 4.33 4.1-1.9 4.1-4.33zm-1.65 0c0 1.47-1.06 2.6-2.45 2.6-1.4 0-2.45-1.13-2.45-2.6 0-1.47 1.06-2.6 2.45-2.6 1.4 0 2.45 1.13 2.45 2.6z"/></defs><g><g transform="translate(-690 -640)"><use fill="#9fa3a7" xlink:href="#1tsna"/></g></g></svg>